<?xml version="1.0" encoding="UTF-8" standalone="no"?>
<!-- Created with Inkscape (http://www.inkscape.org/) -->

<svg
   width="41.782215mm"
   height="16.189518mm"
   viewBox="0 0 41.782215 16.189518"
   version="1.1"
   id="svg5"
   inkscape:export-filename="logo 2.svg"
   inkscape:export-xdpi="96"
   inkscape:export-ydpi="96"
   xmlns:inkscape="http://www.inkscape.org/namespaces/inkscape"
   xmlns:sodipodi="http://sodipodi.sourceforge.net/DTD/sodipodi-0.dtd"
   xmlns="http://www.w3.org/2000/svg"
   xmlns:svg="http://www.w3.org/2000/svg">
  <sodipodi:namedview
     id="namedview7"
     pagecolor="#ffffff"
     bordercolor="#000000"
     borderopacity="0.25"
     inkscape:showpageshadow="2"
     inkscape:pageopacity="0.0"
     inkscape:pagecheckerboard="0"
     inkscape:deskcolor="#d1d1d1"
     inkscape:document-units="mm"
     showgrid="false" />
  <defs
     id="defs2" />
  <g
     inkscape:label="Шар 1"
     inkscape:groupmode="layer"
     id="layer1"
     transform="translate(-30.959676,-10.711693)">
    <rect
       style="fill:#aa8800;fill-opacity:0.7;stroke-width:0.264999"
       id="rect234"
       width="1.8185484"
       height="16.100807"
       x="30.959675"
       y="10.733871"
       ry="0.90927422" />
    <ellipse
       style="fill:#ffffff;fill-opacity:1;stroke-width:0.264999"
       id="path743-3"
       cx="31.86544"
       cy="25.823387"
       rx="0.62651205"
       ry="0.59324598" />
    <path
       id="path608-31"
       style="fill:#000000;fill-opacity:1;stroke-width:0.265"
       d="m 31.879461,25.17482 a 0.64037535,0.63760078 0 0 0 -0.640563,0.637687 0.64037535,0.63760078 0 0 0 0.640563,0.637171 0.64037535,0.63760078 0 0 0 0.640031,-0.637171 0.64037535,0.63760078 0 0 0 -0.640031,-0.637687 z m -0.01972,0.06666 c 0.0028,-1.33e-4 0.0053,0 0.008,0 0.08869,0 0.160409,0.06902 0.160409,0.15503 v 0.23461 l 0.258996,0.0031 c 0.08869,0.0011 0.159381,0.0711 0.158276,0.157097 -0.0011,0.086 -0.07332,0.154551 -0.162006,0.153479 l -0.255266,-0.0031 v 0.264066 c 0,0.086 -0.07171,0.155546 -0.160409,0.155546 -0.08869,0 -0.159874,-0.06954 -0.159874,-0.155546 v -0.267684 l -0.25953,-0.0031 c -0.08869,-0.0011 -0.158848,-0.07162 -0.157742,-0.157613 0.0011,-0.086 0.07332,-0.154034 0.162006,-0.152962 l 0.255266,0.0031 v -0.230991 c 0,-0.08332 0.06706,-0.150887 0.151881,-0.155029 z" />
    <ellipse
       style="fill:#ffffff;fill-opacity:1;stroke-width:0.264999"
       id="path743-7"
       cx="31.802713"
       cy="11.49022"
       rx="0.62651205"
       ry="0.59324598" />
    <path
       id="path608-3"
       style="fill:#000000;fill-opacity:1;stroke-width:0.265"
       d="m 31.816734,10.841652 a 0.64037535,0.63760078 0 0 0 -0.640563,0.637687 0.64037535,0.63760078 0 0 0 0.640563,0.637171 0.64037535,0.63760078 0 0 0 0.640031,-0.637171 0.64037535,0.63760078 0 0 0 -0.640031,-0.637687 z m -0.01972,0.06666 c 0.0028,-1.34e-4 0.0053,0 0.008,0 0.08869,0 0.160409,0.06902 0.160409,0.155029 v 0.234611 l 0.258996,0.0031 c 0.08869,0.0011 0.159381,0.0711 0.158276,0.157097 -0.0011,0.086 -0.07332,0.15455 -0.162006,0.153479 l -0.255266,-0.0031 v 0.264066 c 0,0.086 -0.07171,0.155546 -0.160409,0.155546 -0.08869,0 -0.159874,-0.06954 -0.159874,-0.155546 V 11.60491 l -0.25953,-0.0031 c -0.08869,-0.0011 -0.158848,-0.07162 -0.157742,-0.157613 0.0011,-0.086 0.07332,-0.154034 0.162006,-0.152963 l 0.255266,0.0031 v -0.230993 c 0,-0.08332 0.06706,-0.150887 0.151881,-0.155029 z" />
    <rect
       style="fill:#440055;fill-opacity:0.7;stroke-width:0.264999"
       id="rect234-3"
       width="1.8185484"
       height="16.100807"
       x="40.651207"
       y="10.711693"
       ry="0.90927422" />
    <rect
       style="fill:#ac939d;fill-opacity:0.7;stroke-width:0.264999"
       id="rect234-9"
       width="1.8629032"
       height="16.100807"
       x="50.276207"
       y="10.800403"
       ry="0.90927422" />
    <rect
       style="fill:#48373e;fill-opacity:0.7;stroke-width:0.265845"
       id="rect234-95"
       width="2.2611551"
       height="19.048281"
       x="48.030396"
       y="-14.71837"
       ry="1.0757293"
       transform="matrix(0.883076,0.46922998,-0.56561391,0.82467018,0,0)" />
    <rect
       style="fill:#48373e;fill-opacity:0.7;stroke-width:0.265469"
       id="rect234-95-8"
       width="2.1929209"
       height="18.751696"
       x="56.11636"
       y="-19.738516"
       ry="1.0589799"
       transform="matrix(0.87663732,0.48115175,-0.55315885,0.8330758,0,0)" />
    <rect
       style="fill:#ffcc00;fill-opacity:0.7;stroke-width:0.266388"
       id="rect234-95-9"
       width="1.7725303"
       height="14.696199"
       x="36.258305"
       y="-18.145638"
       ry="0.82995051"
       transform="matrix(0.77778239,0.62853365,-0.73388193,0.67927705,0,0)" />
    <rect
       style="fill:#ffdd55;fill-opacity:0.7;stroke-width:0.26544"
       id="rect234-95-0"
       width="1.4433869"
       height="13.412629"
       x="1.5231961"
       y="36.158539"
       ry="0.75746244"
       transform="matrix(0.63154465,-0.77533951,0.8242241,0.56626375,0,0)" />
    <rect
       style="fill:#d42aff;fill-opacity:0.7;stroke-width:0.26534"
       id="rect234-95-5"
       width="1.3915088"
       height="11.448883"
       x="10.589779"
       y="-51.383644"
       ry="0.64656222"
       transform="matrix(0.06529528,0.99786599,-0.99997941,-0.00641675,0,0)" />
    <path
       id="path507"
       style="fill:#ff0000;fill-opacity:0.7;stroke-width:0.264999"
       d="m 59.524299,21.822441 a 2.75,2.2620966 0 0 0 -2.75022,2.262394 2.75,2.2620966 0 0 0 2.75022,2.261877 2.75,2.2620966 0 0 0 2.749703,-2.261877 2.75,2.2620966 0 0 0 -2.749703,-2.262394 z m 0.02222,0.753959 a 1.6633064,1.5080645 0 0 1 1.662948,1.508435 1.6633064,1.5080645 0 0 1 -1.662948,1.507918 1.6633064,1.5080645 0 0 1 -1.663464,-1.507918 1.6633064,1.5080645 0 0 1 1.663464,-1.508435 z" />
    <path
       id="path507-6"
       style="fill:#00ff00;fill-opacity:0.7;stroke-width:0.265"
       d="m 68.439918,10.999961 a 4.302441,3.9475515 0 0 0 -4.302785,3.948071 4.302441,3.9475515 0 0 0 4.302785,3.947168 4.302441,3.9475515 0 0 0 4.301976,-3.947168 4.302441,3.9475515 0 0 0 -4.301976,-3.948071 z m 0.03476,1.315723 a 2.6022828,2.6317011 0 0 1 2.601721,2.632348 2.6022828,2.6317011 0 0 1 -2.601721,2.631445 2.6022828,2.6317011 0 0 1 -2.60253,-2.631445 2.6022828,2.6317011 0 0 1 2.60253,-2.632348 z" />
    <rect
       style="fill:#008000;fill-opacity:0.7;stroke-width:0.266604"
       id="rect234-95-9-4"
       width="1.6015401"
       height="13.204773"
       x="67.715614"
       y="-18.591751"
       ry="0.74572396"
       transform="matrix(0.89212612,0.45178644,-0.58416568,0.81163444,0,0)" />
    <ellipse
       style="fill:#ffffff;fill-opacity:1;stroke-width:0.264999"
       id="path743-72"
       cx="41.556793"
       cy="11.490221"
       rx="0.62651205"
       ry="0.59324598" />
    <path
       id="path608-2"
       style="fill:#000000;fill-opacity:1;stroke-width:0.265"
       d="m 41.570815,10.841651 a 0.64037535,0.63760078 0 0 0 -0.640563,0.637687 0.64037535,0.63760078 0 0 0 0.640563,0.637171 0.64037535,0.63760078 0 0 0 0.640031,-0.637171 0.64037535,0.63760078 0 0 0 -0.640031,-0.637687 z m -0.01972,0.06666 c 0.0028,-1.33e-4 0.0053,0 0.008,0 0.08869,0 0.160408,0.06902 0.160408,0.155029 v 0.234611 l 0.258997,0.0031 c 0.08869,0.0011 0.159381,0.0711 0.158276,0.157097 -0.0011,0.086 -0.07332,0.154551 -0.162006,0.153479 l -0.255267,-0.0031 v 0.264066 c 0,0.086 -0.07171,0.155546 -0.160408,0.155546 -0.08869,0 -0.159874,-0.06954 -0.159874,-0.155546 v -0.267684 l -0.25953,-0.0031 c -0.08869,-0.0011 -0.158848,-0.07162 -0.157742,-0.157613 0.0011,-0.086 0.07332,-0.154034 0.162006,-0.152962 l 0.255266,0.0031 v -0.230991 c 0,-0.08332 0.06706,-0.150887 0.151881,-0.155029 z" />
    <ellipse
       style="fill:#ffffff;fill-opacity:1;stroke-width:0.264999"
       id="path743-8"
       cx="32.304531"
       cy="19.707485"
       rx="0.62651205"
       ry="0.59324598" />
    <path
       id="path608-9"
       style="fill:#000000;fill-opacity:1;stroke-width:0.265"
       d="m 32.301926,19.027553 a 0.65701044,0.63760078 0 0 0 -0.657203,0.637687 0.65701044,0.63760078 0 0 0 0.657203,0.637171 0.65701044,0.63760078 0 0 0 0.656657,-0.637171 0.65701044,0.63760078 0 0 0 -0.656657,-0.637687 z m -0.02023,0.06666 c 0.0029,-1.34e-4 0.0054,0 0.0082,0 0.09099,0 0.164576,0.06902 0.164576,0.155029 v 0.234611 l 0.265724,0.0031 c 0.09099,0.0011 0.163521,0.0711 0.162388,0.157097 -0.0011,0.086 -0.07523,0.154551 -0.166215,0.153479 l -0.261897,-0.0031 v 0.264066 c 0,0.086 -0.07357,0.155546 -0.164576,0.155546 -0.09099,0 -0.164027,-0.06954 -0.164027,-0.155546 v -0.267684 l -0.266272,-0.0031 c -0.09099,-0.0011 -0.162974,-0.07162 -0.161839,-0.157613 0.0011,-0.086 0.07522,-0.154034 0.166214,-0.152962 l 0.261897,0.0031 v -0.230994 c 0,-0.08332 0.0688,-0.150887 0.155827,-0.155029 z" />
    <ellipse
       style="fill:#ffffff;fill-opacity:1;stroke-width:0.264999"
       id="path743-2"
       cx="41.556793"
       cy="25.823389"
       rx="0.62651205"
       ry="0.59324598" />
    <path
       id="path608-0"
       style="fill:#000000;fill-opacity:1;stroke-width:0.264999"
       d="m 41.576364,25.17482 a 0.64592041,0.63760078 0 0 0 -0.64611,0.637687 0.64592041,0.63760078 0 0 0 0.64611,0.637171 0.64592041,0.63760078 0 0 0 0.645573,-0.637171 0.64592041,0.63760078 0 0 0 -0.645573,-0.637687 z m -0.01989,0.06666 c 0.0028,-1.33e-4 0.0053,0 0.0081,0 0.08946,0 0.161798,0.06902 0.161798,0.155029 v 0.234611 l 0.261239,0.0031 c 0.08946,0.0011 0.160761,0.0711 0.159646,0.157097 -0.0011,0.086 -0.07396,0.154551 -0.163409,0.153479 l -0.257476,-0.0031 v 0.264066 c 0,0.086 -0.07234,0.155546 -0.161798,0.155546 -0.08946,0 -0.161258,-0.06954 -0.161258,-0.155546 v -0.267684 l -0.261777,-0.0031 c -0.08946,-0.0011 -0.160224,-0.07162 -0.159109,-0.157613 0.0011,-0.086 0.07396,-0.154034 0.163409,-0.152962 l 0.257477,0.0031 v -0.230994 c 0,-0.08332 0.06764,-0.150887 0.153196,-0.155029 z" />
    <ellipse
       style="fill:#ffffff;fill-opacity:1;stroke-width:0.264999"
       id="path743-6"
       cx="51.216785"
       cy="11.647038"
       rx="0.62651205"
       ry="0.59324598" />
    <path
       id="path608-8"
       style="fill:#000000;fill-opacity:1;stroke-width:0.265"
       d="m 51.230807,10.998469 a 0.64037535,0.63760078 0 0 0 -0.640564,0.637688 0.64037535,0.63760078 0 0 0 0.640564,0.63717 0.64037535,0.63760078 0 0 0 0.640031,-0.63717 0.64037535,0.63760078 0 0 0 -0.640031,-0.637688 z m -0.01972,0.06666 c 0.0028,-1.34e-4 0.0053,0 0.008,0 0.08869,0 0.160408,0.06902 0.160408,0.155029 v 0.234611 l 0.258997,0.0031 c 0.08869,0.0011 0.159381,0.0711 0.158275,0.157096 -0.0011,0.086 -0.07332,0.154551 -0.162005,0.153479 l -0.255267,-0.0031 v 0.264067 c 0,0.086 -0.07171,0.155546 -0.160408,0.155546 -0.08869,0 -0.159874,-0.06954 -0.159874,-0.155546 V 11.76173 l -0.25953,-0.0031 c -0.08869,-0.0011 -0.158848,-0.07162 -0.157742,-0.157613 0.0011,-0.086 0.07332,-0.154034 0.162005,-0.152962 l 0.255267,0.0031 v -0.230994 c 0,-0.08332 0.06706,-0.150886 0.151881,-0.155029 z" />
    <ellipse
       style="fill:#ffffff;fill-opacity:1;stroke-width:0.264999"
       id="path743-0"
       cx="51.24815"
       cy="25.948843"
       rx="0.62651205"
       ry="0.59324598" />
    <path
       id="path608-5"
       style="fill:#000000;fill-opacity:1;stroke-width:0.264999"
       d="m 51.289823,25.300274 a 0.66801891,0.63760078 0 0 0 -0.668215,0.637687 0.66801891,0.63760078 0 0 0 0.668215,0.637171 0.66801891,0.63760078 0 0 0 0.66766,-0.637171 0.66801891,0.63760078 0 0 0 -0.66766,-0.637687 z m -0.02057,0.06666 c 0.0029,-1.33e-4 0.0055,0 0.0084,0 0.09252,0 0.167333,0.06902 0.167333,0.155029 v 0.234611 l 0.270177,0.0031 c 0.09252,0.0011 0.166261,0.0711 0.165108,0.157097 -0.0012,0.086 -0.07649,0.154551 -0.168999,0.153479 l -0.266286,-0.0031 v 0.264066 c 0,0.086 -0.07481,0.155546 -0.167333,0.155546 -0.09252,0 -0.166776,-0.06954 -0.166776,-0.155546 v -0.267684 l -0.270732,-0.0031 c -0.09252,-0.0011 -0.165706,-0.07162 -0.164552,-0.157613 0.0012,-0.086 0.07649,-0.154034 0.168999,-0.152962 l 0.266285,0.0031 v -0.230994 c 0,-0.08332 0.06996,-0.150887 0.158438,-0.155029 z" />
    <ellipse
       style="fill:#ffffff;fill-opacity:1;stroke-width:0.264999"
       id="path743-02"
       cx="60.563141"
       cy="11.897947"
       rx="0.62651205"
       ry="0.59324598" />
    <path
       id="path608-4"
       style="fill:#000000;fill-opacity:1;stroke-width:0.264999"
       d="m 60.571619,11.249378 a 0.63483036,0.63760078 0 0 0 -0.635017,0.637688 0.63483036,0.63760078 0 0 0 0.635017,0.63717 0.63483036,0.63760078 0 0 0 0.634489,-0.63717 0.63483036,0.63760078 0 0 0 -0.634489,-0.637688 z m -0.01955,0.06666 c 0.0028,-1.33e-4 0.0052,0 0.008,0 0.08792,0 0.159019,0.06902 0.159019,0.15503 v 0.234611 l 0.256754,0.0031 c 0.08792,0.0011 0.158001,0.0711 0.156905,0.157096 -0.0011,0.086 -0.07269,0.154551 -0.160603,0.153479 l -0.253056,-0.0031 v 0.264067 c 0,0.086 -0.07109,0.155546 -0.159019,0.155546 -0.08792,0 -0.15849,-0.06954 -0.15849,-0.155546 v -0.267685 l -0.257282,-0.0031 c -0.08792,-0.0011 -0.157473,-0.07162 -0.156377,-0.157613 0.0011,-0.086 0.07269,-0.154034 0.160603,-0.152962 l 0.253056,0.0031 V 11.47107 c 0,-0.08332 0.06648,-0.150887 0.150566,-0.155029 z" />
    <ellipse
       style="fill:#ffffff;fill-opacity:1;stroke-width:0.264999"
       id="path743-87"
       cx="71.509041"
       cy="16.633852"
       rx="0.62651205"
       ry="0.59324598" />
    <path
       id="path608-7"
       style="fill:#000000;fill-opacity:1;stroke-width:0.264999"
       d="m 71.520289,15.985283 a 0.63760286,0.63760078 0 0 0 -0.63779,0.637688 0.63760286,0.63760078 0 0 0 0.63779,0.63717 0.63760286,0.63760078 0 0 0 0.63726,-0.63717 0.63760286,0.63760078 0 0 0 -0.63726,-0.637688 z m -0.01963,0.06666 c 0.0028,-1.33e-4 0.0052,0 0.008,0 0.0883,0 0.159714,0.06902 0.159714,0.15503 v 0.234611 l 0.257875,0.0031 c 0.0883,0.0011 0.158691,0.0711 0.157591,0.157096 -0.0011,0.086 -0.073,0.154551 -0.161305,0.153479 l -0.254161,-0.0031 v 0.264067 c 0,0.086 -0.0714,0.155546 -0.159714,0.155546 -0.0883,0 -0.159182,-0.06954 -0.159182,-0.155546 v -0.267685 l -0.258406,-0.0031 c -0.0883,-0.0011 -0.15816,-0.07162 -0.15706,-0.157613 0.0011,-0.086 0.07301,-0.154034 0.161305,-0.152962 l 0.254161,0.0031 v -0.230994 c 0,-0.08332 0.06677,-0.150886 0.151223,-0.155029 z" />
  </g>
</svg>
